<?xml version="1.0" encoding="UTF-8"?>
<svg viewBox="0 0 709 708" version="1.1" xmlns="http://www.w3.org/2000/svg" xmlns:xlink="http://www.w3.org/1999/xlink">
    <g id="Page-1" stroke="none" stroke-width="1" fill="none" fill-rule="evenodd">
        <g id="Artboard" transform="translate(-900.000000, -718.000000)" fill-rule="nonzero">
            <g id="Group" transform="translate(900.000000, 718.000000)">
                <g id="Group-2">
                    <path d="M429.17718,389.107378 C429.17718,382.743741 455.562791,379.515152 506.688372,379.515152 C552.843411,379.515152 580.536434,382.343434 589.767442,388 C590.477519,388.707071 591.897674,389.590909 594.027907,390.651515 L595.921447,391.653199 C597.026012,392.281706 597.814987,392.83165 598.288372,393.30303 C598.99845,394.010101 600.241085,395.777778 602.016279,398.606061 C603.791473,401.434343 605.389147,404.616162 606.809302,408.151515 C608.229457,411.686869 610.004651,416.989899 612.134884,424.060606 C614.265116,431.131313 616.750388,439.616162 619.590698,449.515152 C621.72093,455.171717 627.40155,458 636.632558,458 C648.703876,458 656.15969,456.585859 659,453.757576 L659,253.30303 C655.449612,249.767677 647.63876,248 635.567442,248 C625.626357,248 620.300775,250.474747 619.590698,255.424242 C616.750388,265.323232 614.620155,275.575758 613.2,286.181818 C611.069767,303.858586 608.229457,314.111111 604.67907,316.939394 C600.418605,319.767677 576.275969,321.181818 532.251163,321.181818 L475.8,321.181818 C445.266667,321.181818 429.17718,318.232094 429.17718,313.989669 L429.17718,389.107378 Z" id="Path-Copy-5" fill="#A6A4B2"></path>
                    <path d="M206.829771,14.7269082 C152.268975,14.7269082 122.076198,14.7269082 92.3909636,11.5711421 C75.1089306,9.73393067 50.7450368,7.71409476 19.948049,0 L0,171.463288 C4.89952079,176.372258 15.0485282,178.826742 30.4470221,178.826742 C36.746406,178.826742 40.2460637,177.073539 40.9459952,173.567132 C50.7450368,136.399221 64.7436676,109.92585 82.9418877,94.1470202 C101.140108,78.36819 124.587814,70.4787749 153.285008,70.4787749 C178.482543,70.4787749 197.730661,71.7060172 211.02936,74.1605019 C224.328059,76.6149866 224.328059,76.6149866 234.002366,79.1791884 C235.94272,79.6934848 251.275265,84.6337553 280,94 L280,14 C253.874919,14.4846055 229.484842,14.7269082 206.829771,14.7269082 Z" id="Path-Copy" fill="#A6A4B2"></path>
                    <path d="M429,150 L429.183007,315.799401 L429.183007,315.799401 L429.183007,553.883234 C429.183007,590.020958 431.668845,619.072854 436.640523,641.038922 C438.771242,649.541916 450.490196,656.273453 471.797386,661.233533 C493.104575,666.193613 509.084967,668.673653 519.738562,668.673653 C522.579521,668.673653 524,675.40519 524,688.868263 C524,697.371257 523.28976,703.748503 521.869281,708 C436.640523,703.748503 382.30719,701.622754 358.869281,701.622754 L358.869281,701.622754 L203.326797,708 C200.485839,705.165669 199.065359,699.142715 199.065359,689.931138 C199.065359,675.759481 200.485839,668.673653 203.326797,668.673653 C211.849673,668.673653 225.166667,666.193613 243.277778,661.233533 C261.388889,656.273453 271.509804,650.959082 273.640523,645.290419 C277.901961,628.993014 280.03268,597.815369 280.03268,551.757485 C282.117122,417.234406 282.117122,283.31225 280.03268,149.991018 L280.03268,149.991018 L280,94 L280,14 L429,14 L429,14 C454.282337,14.468973 477.939799,14.7110236 499.972387,14.7261518 L511.733152,14.7262265 C560.352331,14.7155474 588.704917,14.5375622 616.609036,11.5711421 C633.891069,9.73393067 658.254963,7.71409476 689.051951,-5.28643795e-12 L709,171.463288 C704.100479,176.372258 693.951472,178.826742 678.552978,178.826742 C672.253594,178.826742 668.753936,177.073539 668.054005,173.567132 C658.254963,136.399221 644.256332,109.92585 626.058112,94.1470202 C607.859892,78.36819 584.412186,70.4787749 555.714992,70.4787749 C530.517457,70.4787749 511.269339,71.7060172 497.97064,74.1605019 C484.671941,76.6149866 484.671941,76.6149866 474.997634,79.1791884 C473.05728,79.6934848 457.724735,84.6337553 429,94 L429,150 Z" id="Combined-Shape" fill="#4C4863"></path>
                </g>
            </g>
        </g>
    </g>
</svg>