<svg width="245px" height="358px" viewBox="0 0 245 358" version="1.1" xmlns="http://www.w3.org/2000/svg" xmlns:xlink="http://www.w3.org/1999/xlink">
    <!-- Generator: Sketch 51.2 (57519) - http://www.bohemiancoding.com/sketch -->
    <title>Logo</title>
    <defs></defs>
    <g id="Page-1" stroke="none" stroke-width="1" fill="none" fill-rule="evenodd">
        <g id="mark-copy-2">
            <g id="Group">
                <path d="M125.534,358 C59.905,358 6.703,347.271 6.703,334.035 C6.703,325.686 27.868,318.335 59.973,314.044 C77.337,328.577 99.437,336.66 122.186,336.659 C134.849,336.658 147.717,334.152 160.073,328.859 C169.387,324.869 177.755,319.576 185.051,313.288 C220.513,317.434 244.366,325.173 244.366,334.035 C244.366,347.271 191.163,358 125.534,358 M122.068,330.196 C110.752,330.196 99.423,328.033 88.601,323.702 C81.577,320.892 75.028,317.272 69.057,312.944 C72.688,312.548 76.435,312.188 80.282,311.869 C92.888,319.302 107.381,323.327 122.212,323.328 C133.052,323.328 144.069,321.179 154.668,316.638 C158.234,315.111 161.638,313.361 164.869,311.414 C168.632,311.68 172.312,311.983 175.891,312.322 C170.267,316.499 164.112,320.044 157.509,322.873 C146.116,327.753 134.099,330.196 122.068,330.196" id="Fill-1-Copy" fill-opacity="0.537109375" fill="#08142E"></path>
                <path d="M196.074,204.398 C196.074,204.398 146.804,132.343 92.385,226.501 C92.385,226.501 54.242,267.283 46.888,268.308 C39.534,269.333 163.182,255.328 164.08,254.943 C164.977,254.559 196.074,204.398 196.074,204.398" id="Fill-2-Copy" fill="#273C63"></path>
                <path d="M122.186,336.659 C84.7,336.661 48.973,314.709 33.303,278.128 C25.477,259.859 23.468,239.954 27.492,220.563 C31.273,202.35 40.074,185.812 52.996,172.594 L28.868,116.272 L34.854,113.707 L60.729,174.107 L59.132,175.667 C32.72,201.469 24.745,241.614 39.289,275.564 C48.759,297.671 66.272,314.767 88.601,323.702 C110.929,332.637 135.401,332.342 157.509,322.873 C179.617,313.402 196.712,295.889 205.648,273.561 C214.583,251.231 214.288,226.76 204.818,204.652 C190.003,170.07 154.826,148.179 117.266,150.171 L114.996,150.291 L89.326,90.371 L95.312,87.807 L119.203,143.573 C158.615,142.437 195.217,165.705 210.804,202.088 C231.768,251.025 209.011,307.894 160.073,328.859 C147.717,334.152 134.849,336.658 122.186,336.659" id="Fill-3-Copy" fill="#0F2145"></path>
                <path d="M195.793,203.861 C195.428,203.963 195.062,204.06 194.694,204.156 L196.057,204.395 C195.969,204.217 195.882,204.038 195.793,203.861" id="Fill-4-Copy" fill="#37A1CE"></path>
                <path d="M196.063,204.407 C195.606,204.81 157.731,238.075 113.574,233.709 C78.243,230.215 51.3,250.099 41.747,258.388 C42.844,263.478 44.437,268.537 46.564,273.502 C64.445,315.242 112.845,334.555 154.668,316.638 C196.491,298.722 215.899,250.36 198.018,208.62 C197.404,207.187 196.748,205.786 196.063,204.407" id="Fill-5-Copy" fill="#0F2145"></path>
                <polyline id="Fill-6-Copy" fill="#1A1919" points="196.074 204.398 196.057 204.395 196.063 204.407 196.074 204.398"></polyline>
                <path d="M113.574,233.708 C157.731,238.075 195.606,204.81 196.063,204.407 L196.057,204.395 L194.694,204.156 C169.474,210.696 138.318,202.787 101.836,212.18 C64.532,221.784 46.333,242.869 41.742,258.368 L41.747,258.389 C51.3,250.1 78.244,230.215 113.574,233.708" id="Fill-7-Copy" fill="#0F2145" opacity="0.592522321"></path>
                <path d="M194.035,294.264 C198.629,280.385 201.561,267.964 203.1,256.861 C204.633,249.136 205.065,241.158 204.301,233.159 C201.11,169.52 141.306,163.535 118.916,163.535 C113.728,163.535 110.546,163.857 110.546,163.857 L81.506,96.069 L89.544,90.881 L114.996,150.291 L117.266,150.171 C118.848,150.087 120.425,150.045 121.997,150.045 C157.752,150.045 190.627,171.527 204.818,204.652 C214.288,226.76 214.583,251.231 205.648,273.561 C202.654,281.043 198.743,287.985 194.035,294.264 M92.319,89.089 L92.319,89.09" id="Fill-8-Copy" fill-opacity="0.164741848" fill="#24385F"></path>
                <path d="M191.828,300.679 C192.604,298.502 193.337,296.372 194.035,294.264 C198.743,287.985 202.654,281.043 205.648,273.561 C214.583,251.231 214.288,226.76 204.818,204.652 C190.627,171.527 157.752,150.045 121.997,150.045 C120.425,150.045 118.848,150.087 117.266,150.171 L114.996,150.291 L89.544,90.881 L92.319,89.089 L117.093,146.919 C181.38,148.149 206.719,191.988 215.21,220.642 C226.201,257.732 191.828,300.679 191.828,300.679" id="Fill-9-Copy" fill="#0F2145"></path>
                <path d="M203.1,256.861 C204.304,248.185 204.66,240.306 204.301,233.159 C205.065,241.158 204.633,249.136 203.1,256.861" id="Fill-10-Copy" fill="#3E84A0"></path>
                <path d="M88.644,70.687 C87.774,70.687 86.905,70.864 86.081,71.217 L24.425,97.63 C21.124,99.044 19.589,102.879 21.004,106.18 L22.029,108.575 C23.443,111.875 27.28,113.409 30.58,111.996 L92.235,85.583 C95.536,84.169 97.071,80.333 95.657,77.033 L94.631,74.639 C93.946,73.04 92.679,71.803 91.065,71.157 C90.282,70.844 89.463,70.687 88.644,70.687 Z M28.034,119.034 C22.977,119.034 18.157,116.073 16.043,111.139 L15.018,108.744 C12.19,102.143 15.259,94.472 21.861,91.644 L83.516,65.231 C86.714,63.861 90.254,63.818 93.484,65.111 C96.714,66.403 99.247,68.877 100.617,72.074 L101.642,74.468 C103.013,77.666 103.055,81.206 101.763,84.436 C100.47,87.666 97.997,90.199 94.799,91.569 L93.517,88.576 L94.799,91.569 L33.144,117.982 C31.477,118.696 29.741,119.034 28.034,119.034 Z" id="Fill-11-Copy" fill="#0F2145"></path>
                <path d="M81.053,253.672 L44.957,269.135 C45.471,270.538 46.022,271.936 46.618,273.326 C49.616,280.325 53.473,286.692 58.008,292.363 L91.485,278.022 C92.853,277.435 93.488,275.85 92.901,274.481 L84.593,255.089 C84.007,253.72 82.422,253.085 81.053,253.672" id="Fill-12-Copy" fill="#3E5FAA"></path>
                <path d="M149.226,224.467 L92.821,248.631 C91.452,249.217 90.818,250.802 91.404,252.171 L99.712,271.564 C100.299,272.932 101.884,273.567 103.253,272.98 L159.657,248.817 C161.026,248.23 161.66,246.646 161.074,245.277 L152.766,225.884 C152.18,224.515 150.595,223.881 149.226,224.467" id="Fill-13-Copy" fill="#9E3793"></path>
                <path d="M171.425,243.776 L203.886,229.869 C202.909,222.674 200.961,215.49 197.963,208.491 C197.367,207.101 196.736,205.737 196.074,204.398 L160.994,219.426 C159.625,220.012 158.991,221.597 159.577,222.966 L167.885,242.359 C168.471,243.728 170.056,244.362 171.425,243.776" id="Fill-14-Copy" fill="#D7204E"></path>
                <path d="M80.348,288.553 L61.619,296.576 C68.65,304.239 77.003,310.413 86.161,314.881 L90.779,312.902 C92.148,312.316 92.783,310.731 92.196,309.362 L83.888,289.969 C83.302,288.601 81.717,287.966 80.348,288.553" id="Fill-15-Copy" fill="#EA3C24"></path>
                <path d="M102.547,307.861 L158.952,283.698 C160.321,283.111 160.955,281.526 160.369,280.158 L152.061,260.765 C151.475,259.396 149.89,258.761 148.521,259.348 L92.116,283.511 C90.747,284.098 90.113,285.683 90.699,287.051 L99.007,306.444 C99.594,307.813 101.179,308.447 102.547,307.861" id="Fill-16-Copy" fill="#F46722"></path>
                <path d="M170.72,278.656 L200.765,265.785 C203.849,256.073 205.142,245.767 204.445,235.39 L160.289,254.307 C158.92,254.893 158.286,256.478 158.872,257.847 L167.18,277.24 C167.766,278.608 169.351,279.243 170.72,278.656" id="Fill-17-Copy" fill="#EA3C24"></path>
                <path d="M92.842,317.779 C101.717,321.18 111.18,323.059 120.809,323.238 L115.558,310.981 C114.972,309.612 113.387,308.978 112.018,309.564 L92.842,317.779" id="Fill-18-Copy" fill="#FA5B18"></path>
                <path d="M122.369,308.063 L128.768,322.999 C137.48,322.311 146.229,320.213 154.708,316.581 C168.198,310.802 179.346,301.843 187.664,290.958 L183.731,281.776 C183.144,280.407 181.559,279.773 180.19,280.36 L123.786,304.523 C122.417,305.109 121.783,306.694 122.369,308.063" id="Fill-19-Copy" fill="#FA8C18"></path>
                <path d="M190.542,278.858 L192.619,283.708 C194.777,280.155 196.658,276.447 198.255,272.621 L191.958,275.318 C190.59,275.905 189.955,277.49 190.542,278.858" id="Fill-20-Copy" fill="#FFB714"></path>
                <path d="M92.88,157.616 L94.795,162.564 C94.921,162.888 94.965,163.219 94.93,163.557 C94.893,163.897 94.79,164.23 94.619,164.557 C94.95,164.69 95.246,164.868 95.509,165.091 C95.772,165.314 95.966,165.587 96.091,165.911 L98.11,171.124 L99.445,170.608 L100.45,173.203 L96.763,174.631 C96.65,174.675 96.509,174.673 96.343,174.626 C96.175,174.579 96.036,174.409 95.923,174.119 L93.595,168.105 C93.432,167.685 93.171,167.371 92.812,167.165 C92.455,166.962 92.101,166.888 91.752,166.949 L90.87,164.67 C91.031,164.607 91.171,164.497 91.287,164.341 C91.403,164.185 91.482,164.005 91.525,163.802 C91.567,163.6 91.586,163.398 91.582,163.195 C91.578,162.992 91.541,162.801 91.473,162.624 L89.247,156.875 C89.128,156.569 89.12,156.344 89.223,156.201 C89.326,156.06 89.426,155.97 89.523,155.932 L93.21,154.505 L94.214,157.1 L92.88,157.616" id="Fill-21-Copy" fill="#0F2145"></path>
                <polyline id="Fill-22-Copy" fill="#0F2145" points="64.915 152.75 63.819 150.193 65.349 149.538 59.555 136.006 58.025 136.66 56.93 134.103 61.424 132.178 69.409 150.826 64.915 152.75"></polyline>
                <polyline id="Fill-23-Copy" fill="#0F2145" points="78.262 197.967 87.002 188.585 88.013 192.136 83.346 197.304 89.992 199.09 91.06 202.842 78.725 199.593 78.262 197.967"></polyline>
                <polyline id="Fill-24-Copy" fill="#0F2145" points="63.378 38.011 62.612 57.81 59.271 58.911 60.038 39.112 63.378 38.011"></polyline>
                <path d="M7.54,9.792 L7.511,7.858 L6.249,8.168 L6.276,10.102 L7.54,9.792 Z M14.015,6.262 L10.669,7.084 L10.697,9.018 L13.391,8.357 L14.114,11.303 L10.705,12.14 L10.719,15.93 L7.54,16.71 L7.546,12.914 L6.284,13.224 L6.299,17.014 L3.121,17.794 L3.127,13.998 L0.77,14.576 L0.047,11.63 L3.12,10.877 L3.092,8.942 L0.671,9.536 L0,6.799 L3.094,6.041 L3.096,1.957 L6.274,1.177 L6.251,5.266 L7.514,4.957 L7.517,0.873 L10.695,0.093 L10.671,4.182 L13.344,3.526 L14.015,6.262 Z" id="Fill-25-Copy" fill="#0F2145"></path>
                <path d="M27.205,63.067 L26.072,61.048 L29.042,59.381 C29.118,59.338 29.248,59.32 29.43,59.326 C29.613,59.334 29.785,59.48 29.946,59.768 L33.116,65.414 C33.192,65.549 33.297,65.684 33.432,65.818 C33.567,65.952 33.72,66.065 33.891,66.156 C34.062,66.25 34.238,66.306 34.417,66.323 C34.596,66.344 34.769,66.305 34.936,66.212 L35.928,67.98 C35.66,68.211 35.502,68.513 35.454,68.889 C35.406,69.263 35.484,69.633 35.688,69.995 L38.999,75.891 C39.142,76.147 39.181,76.359 39.115,76.525 C39.049,76.692 38.964,76.804 38.858,76.864 L35.888,78.531 L34.754,76.513 L36.001,75.813 L33.009,70.484 C32.866,70.228 32.774,69.931 32.734,69.594 C32.695,69.259 32.737,68.918 32.859,68.57 C32.499,68.494 32.186,68.353 31.919,68.144 C31.653,67.935 31.448,67.702 31.304,67.445 L28.452,62.366 L27.205,63.067" id="Fill-26-Copy" fill="#0F2145"></path>
                <path d="M7.694,46.974 C7.91,48.446 8.618,49.095 9.818,48.919 C10.446,48.827 10.892,48.536 11.155,48.044 C11.418,47.553 11.511,46.803 11.435,45.795 L11.231,43.461 C10.864,43.435 10.456,43.457 10.01,43.523 C9.138,43.651 8.499,44.022 8.094,44.638 C7.688,45.253 7.555,46.032 7.694,46.974 Z M18.223,44.093 C18.37,45.099 18.344,46.042 18.145,46.923 C17.947,47.803 17.589,48.524 17.072,49.085 C16.556,49.646 15.91,49.983 15.135,50.096 C14.619,50.172 14.143,50.116 13.709,49.926 C13.275,49.737 12.94,49.452 12.707,49.072 L12.539,49.097 C11.917,50.108 11.024,50.699 9.859,50.87 C8.623,51.051 7.595,50.823 6.774,50.183 C5.953,49.546 5.448,48.58 5.258,47.289 C5.042,45.816 5.336,44.56 6.139,43.523 C6.942,42.485 8.098,41.857 9.605,41.636 C10.206,41.548 10.875,41.508 11.615,41.517 C12.354,41.527 12.97,41.576 13.46,41.668 L13.971,46.823 C14.113,47.794 14.449,48.24 14.979,48.162 C15.426,48.096 15.735,47.719 15.904,47.027 C16.074,46.335 16.081,45.463 15.926,44.409 C15.761,43.285 15.382,42.326 14.788,41.533 C14.194,40.74 13.44,40.177 12.525,39.848 C11.61,39.519 10.609,39.435 9.52,39.594 C8.11,39.801 6.927,40.271 5.973,41.002 C5.018,41.734 4.342,42.687 3.948,43.861 C3.553,45.034 3.461,46.337 3.671,47.767 C3.954,49.694 4.685,51.096 5.865,51.975 C7.045,52.853 8.613,53.15 10.568,52.863 C11.307,52.755 12.108,52.553 12.971,52.258 C13.833,51.965 14.671,51.598 15.483,51.157 L15.778,53.168 C14.377,54.022 12.767,54.584 10.945,54.851 C8.292,55.24 6.122,54.844 4.435,53.667 C2.746,52.488 1.72,50.656 1.356,48.172 C1.103,46.447 1.251,44.827 1.803,43.309 C2.353,41.791 3.27,40.531 4.553,39.526 C5.835,38.522 7.387,37.885 9.208,37.618 C10.744,37.393 12.162,37.506 13.461,37.957 C14.761,38.407 15.824,39.165 16.65,40.227 C17.476,41.289 18,42.578 18.223,44.093 Z" id="Fill-27-Copy" fill="#0F2145"></path>
                <polyline id="Fill-28-Copy" fill="#0F2145" points="74.232 112.974 75.044 116.807 78.445 114.524 79.614 116.946 76.277 118.317 79.504 120.559 77.625 122.529 75.019 119.902 74.675 123.482 71.909 123.071 73.143 119.353 69.66 120.215 69.222 117.573 73.235 117.406 71.6 113.844 74.232 112.974"></polyline>
                <polyline id="Fill-29-Copy" fill="#0F2145" points="44.956 26.527 40.264 28.581 32.681 11.27 37.373 9.215 38.269 11.26 36.097 12.211 41.888 25.431 44.059 24.481 44.956 26.527"></polyline>
            </g>
        </g>
    </g>
</svg>